<svg width="80" height="35" viewBox="0 0 80 35" fill="none" xmlns="http://www.w3.org/2000/svg">
<path d="M0 17.1667C0 16.5223 0.522334 16 1.16667 16H8.54762C9.19195 16 9.71429 16.5223 9.71429 17.1667C9.71429 17.811 9.19195 18.3333 8.54762 18.3333H1.16667C0.522333 18.3333 0 17.811 0 17.1667Z" fill="#1C1C1C"/>
<path d="M11.7143 17.1667C11.7143 16.5223 12.2366 16 12.881 16H20.2619C20.9062 16 21.4286 16.5223 21.4286 17.1667C21.4286 17.811 20.9062 18.3333 20.2619 18.3333H12.881C12.2366 18.3333 11.7143 17.811 11.7143 17.1667Z" fill="#1C1C1C" fill-opacity="0.4"/>
<path d="M23.4286 17.1667C23.4286 16.5223 23.9509 16 24.5953 16H31.9762C32.6205 16 33.1429 16.5223 33.1429 17.1667C33.1429 17.811 32.6205 18.3333 31.9762 18.3333H24.5953C23.9509 18.3333 23.4286 17.811 23.4286 17.1667Z" fill="#1C1C1C" fill-opacity="0.1"/>
</svg>
