<svg width="80" height="35" viewBox="0 0 80 35" fill="none" xmlns="http://www.w3.org/2000/svg">
<path d="M0 17.5C0 16.8557 0.522335 16.3333 1.16667 16.3333H17.3333C17.9777 16.3333 18.5 16.8557 18.5 17.5C18.5 18.1443 17.9777 18.6667 17.3333 18.6667H1.16667C0.522335 18.6667 0 18.1443 0 17.5Z" fill="#1C1C1C"/>
<path d="M20.5 17.5C20.5 16.8557 21.0223 16.3333 21.6667 16.3333H37.8333C38.4777 16.3333 39 16.8557 39 17.5C39 18.1443 38.4777 18.6667 37.8333 18.6667H21.6667C21.0223 18.6667 20.5 18.1443 20.5 17.5Z" fill="#1C1C1C" fill-opacity="0.4"/>
<path d="M41 17.5C41 16.8557 41.5223 16.3333 42.1667 16.3333H58.3333C58.9777 16.3333 59.5 16.8557 59.5 17.5C59.5 18.1443 58.9777 18.6667 58.3333 18.6667H42.1667C41.5223 18.6667 41 18.1443 41 17.5Z" fill="#1C1C1C" fill-opacity="0.1"/>
</svg>
