<svg width="20" height="21" viewBox="0 0 20 21" fill="none" xmlns="http://www.w3.org/2000/svg">
<path d="M16.25 15.5H3.75002C3.64063 15.4993 3.53333 15.47 3.43884 15.4149C3.34435 15.3597 3.26599 15.2808 3.21158 15.1859C3.15717 15.091 3.12862 14.9835 3.12878 14.8741C3.12895 14.7647 3.15783 14.6572 3.21252 14.5625C3.72737 13.6719 4.37502 11.4227 4.37502 8.625C4.37502 7.13316 4.96766 5.70242 6.02255 4.64752C7.07744 3.59263 8.50818 3 10 3C11.4919 3 12.9226 3.59263 13.9775 4.64752C15.0324 5.70242 15.625 7.13316 15.625 8.625C15.625 11.4234 16.2735 13.6719 16.7891 14.5625C16.8438 14.6574 16.8727 14.7649 16.8728 14.8745C16.8729 14.984 16.8442 15.0916 16.7896 15.1865C16.735 15.2815 16.6565 15.3604 16.5618 15.4154C16.467 15.4705 16.3595 15.4996 16.25 15.5Z" fill="#1C1C1C" fill-opacity="0.1"/>
<path d="M17.3281 14.2453C16.8945 13.4984 16.2499 11.3852 16.2499 8.625C16.2499 6.9674 15.5915 5.37769 14.4194 4.20558C13.2473 3.03348 11.6576 2.375 9.99995 2.375C8.34235 2.375 6.75263 3.03348 5.58053 4.20558C4.40843 5.37769 3.74995 6.9674 3.74995 8.625C3.74995 11.3859 3.10464 13.4984 2.67104 14.2453C2.56032 14.4352 2.50162 14.6509 2.50086 14.8707C2.50011 15.0905 2.55733 15.3066 2.66674 15.4973C2.77616 15.6879 2.93392 15.8463 3.12409 15.9565C3.31427 16.0667 3.53015 16.1248 3.74995 16.125H6.93823C7.08243 16.8306 7.46591 17.4647 8.0238 17.9201C8.5817 18.3756 9.27977 18.6243 9.99995 18.6243C10.7201 18.6243 11.4182 18.3756 11.9761 17.9201C12.534 17.4647 12.9175 16.8306 13.0617 16.125H16.2499C16.4697 16.1247 16.6855 16.0665 16.8755 15.9562C17.0656 15.846 17.2232 15.6875 17.3326 15.4969C17.4419 15.3063 17.499 15.0903 17.4983 14.8705C17.4975 14.6508 17.4388 14.4351 17.3281 14.2453ZM9.99995 17.375C9.61231 17.3749 9.23423 17.2546 8.91776 17.0308C8.60129 16.8069 8.36198 16.4905 8.23276 16.125H11.7671C11.6379 16.4905 11.3986 16.8069 11.0821 17.0308C10.7657 17.2546 10.3876 17.3749 9.99995 17.375ZM3.74995 14.875C4.35151 13.8406 4.99995 11.4438 4.99995 8.625C4.99995 7.29892 5.52673 6.02715 6.46442 5.08947C7.4021 4.15178 8.67387 3.625 9.99995 3.625C11.326 3.625 12.5978 4.15178 13.5355 5.08947C14.4732 6.02715 14.9999 7.29892 14.9999 8.625C14.9999 11.4414 15.6468 13.8383 16.2499 14.875H3.74995Z" fill="#1C1C1C"/>
</svg>
