<svg width="20" height="21" viewBox="0 0 20 21" fill="none" xmlns="http://www.w3.org/2000/svg">
<path d="M6.875 4.25V16.75H3.125C2.95924 16.75 2.80027 16.6842 2.68306 16.5669C2.56585 16.4497 2.5 16.2908 2.5 16.125V4.875C2.5 4.70924 2.56585 4.55027 2.68306 4.43306C2.80027 4.31585 2.95924 4.25 3.125 4.25H6.875Z" fill="#1C1C1C" fill-opacity="0.1"/>
<path d="M16.875 3.625H3.125C2.79348 3.625 2.47554 3.7567 2.24112 3.99112C2.0067 4.22554 1.875 4.54348 1.875 4.875V16.125C1.875 16.4565 2.0067 16.7745 2.24112 17.0089C2.47554 17.2433 2.79348 17.375 3.125 17.375H16.875C17.2065 17.375 17.5245 17.2433 17.7589 17.0089C17.9933 16.7745 18.125 16.4565 18.125 16.125V4.875C18.125 4.54348 17.9933 4.22554 17.7589 3.99112C17.5245 3.7567 17.2065 3.625 16.875 3.625ZM3.125 12.375H4.375C4.54076 12.375 4.69973 12.3092 4.81694 12.1919C4.93415 12.0747 5 11.9158 5 11.75C5 11.5842 4.93415 11.4253 4.81694 11.3081C4.69973 11.1908 4.54076 11.125 4.375 11.125H3.125V9.875H4.375C4.54076 9.875 4.69973 9.80915 4.81694 9.69194C4.93415 9.57473 5 9.41576 5 9.25C5 9.08424 4.93415 8.92527 4.81694 8.80806C4.69973 8.69085 4.54076 8.625 4.375 8.625H3.125V7.375H4.375C4.54076 7.375 4.69973 7.30915 4.81694 7.19194C4.93415 7.07473 5 6.91576 5 6.75C5 6.58424 4.93415 6.42527 4.81694 6.30806C4.69973 6.19085 4.54076 6.125 4.375 6.125H3.125V4.875H6.25V16.125H3.125V12.375ZM16.875 16.125H7.5V4.875H16.875V16.125Z" fill="#1C1C1C"/>
</svg>
