<svg width="20" height="21" viewBox="0 0 20 21" fill="none" xmlns="http://www.w3.org/2000/svg">
<path d="M14.375 10.5C14.375 11.3653 14.1184 12.2112 13.6377 12.9306C13.157 13.6501 12.4737 14.2108 11.6742 14.542C10.8748 14.8731 9.99515 14.9597 9.14648 14.7909C8.29781 14.6221 7.51826 14.2054 6.90641 13.5936C6.29456 12.9817 5.87788 12.2022 5.70907 11.3535C5.54026 10.5049 5.6269 9.62519 5.95803 8.82576C6.28916 8.02633 6.84992 7.34305 7.56938 6.86232C8.28885 6.38159 9.13471 6.125 10 6.125C11.1603 6.125 12.2731 6.58594 13.0936 7.40641C13.9141 8.22688 14.375 9.33968 14.375 10.5Z" fill="#1C1C1C" fill-opacity="0.1"/>
<path d="M9.375 3.625V1.75C9.375 1.58424 9.44085 1.42527 9.55806 1.30806C9.67527 1.19085 9.83424 1.125 10 1.125C10.1658 1.125 10.3247 1.19085 10.4419 1.30806C10.5592 1.42527 10.625 1.58424 10.625 1.75V3.625C10.625 3.79076 10.5592 3.94973 10.4419 4.06694C10.3247 4.18415 10.1658 4.25 10 4.25C9.83424 4.25 9.67527 4.18415 9.55806 4.06694C9.44085 3.94973 9.375 3.79076 9.375 3.625ZM15 10.5C15 11.4889 14.7068 12.4556 14.1573 13.2779C13.6079 14.1001 12.827 14.741 11.9134 15.1194C10.9998 15.4978 9.99445 15.5969 9.02455 15.4039C8.05464 15.211 7.16373 14.7348 6.46447 14.0355C5.7652 13.3363 5.289 12.4454 5.09607 11.4755C4.90315 10.5055 5.00216 9.50021 5.3806 8.58658C5.75904 7.67295 6.3999 6.89206 7.22215 6.34265C8.04439 5.79324 9.01109 5.5 10 5.5C11.3256 5.50145 12.5966 6.0287 13.5339 6.96606C14.4713 7.90343 14.9986 9.17436 15 10.5ZM13.75 10.5C13.75 9.75832 13.5301 9.0333 13.118 8.41661C12.706 7.79993 12.1203 7.31928 11.4351 7.03545C10.7498 6.75162 9.99584 6.67736 9.26841 6.82206C8.54098 6.96675 7.8728 7.3239 7.34835 7.84835C6.8239 8.3728 6.46675 9.04098 6.32206 9.76841C6.17736 10.4958 6.25162 11.2498 6.53545 11.9351C6.81928 12.6203 7.29993 13.206 7.91661 13.618C8.5333 14.0301 9.25832 14.25 10 14.25C10.9942 14.249 11.9475 13.8535 12.6505 13.1505C13.3535 12.4475 13.749 11.4942 13.75 10.5ZM4.55781 5.94219C4.67509 6.05946 4.83415 6.12535 5 6.12535C5.16585 6.12535 5.32491 6.05946 5.44219 5.94219C5.55946 5.82491 5.62535 5.66585 5.62535 5.5C5.62535 5.33415 5.55946 5.17509 5.44219 5.05781L4.19219 3.80781C4.07491 3.69054 3.91585 3.62465 3.75 3.62465C3.58415 3.62465 3.42509 3.69054 3.30781 3.80781C3.19054 3.92509 3.12465 4.08415 3.12465 4.25C3.12465 4.41585 3.19054 4.57491 3.30781 4.69219L4.55781 5.94219ZM4.55781 15.0578L3.30781 16.3078C3.19054 16.4251 3.12465 16.5841 3.12465 16.75C3.12465 16.9159 3.19054 17.0749 3.30781 17.1922C3.42509 17.3095 3.58415 17.3753 3.75 17.3753C3.91585 17.3753 4.07491 17.3095 4.19219 17.1922L5.44219 15.9422C5.50026 15.8841 5.54632 15.8152 5.57775 15.7393C5.60917 15.6634 5.62535 15.5821 5.62535 15.5C5.62535 15.4179 5.60917 15.3366 5.57775 15.2607C5.54632 15.1848 5.50026 15.1159 5.44219 15.0578C5.38412 14.9997 5.31518 14.9537 5.23931 14.9223C5.16344 14.8908 5.08212 14.8747 5 14.8747C4.91788 14.8747 4.83656 14.8908 4.76069 14.9223C4.68482 14.9537 4.61588 14.9997 4.55781 15.0578ZM15 6.125C15.0821 6.12506 15.1634 6.10895 15.2393 6.07759C15.3152 6.04622 15.3841 6.00021 15.4422 5.94219L16.6922 4.69219C16.8095 4.57491 16.8753 4.41585 16.8753 4.25C16.8753 4.08415 16.8095 3.92509 16.6922 3.80781C16.5749 3.69054 16.4159 3.62465 16.25 3.62465C16.0841 3.62465 15.9251 3.69054 15.8078 3.80781L14.5578 5.05781C14.4703 5.14522 14.4107 5.25663 14.3865 5.37793C14.3624 5.49924 14.3748 5.62498 14.4221 5.73924C14.4695 5.85351 14.5496 5.95116 14.6525 6.01982C14.7554 6.08849 14.8763 6.1251 15 6.125ZM15.4422 15.0578C15.3249 14.9405 15.1659 14.8747 15 14.8747C14.8341 14.8747 14.6751 14.9405 14.5578 15.0578C14.4405 15.1751 14.3747 15.3341 14.3747 15.5C14.3747 15.6659 14.4405 15.8249 14.5578 15.9422L15.8078 17.1922C15.8659 17.2503 15.9348 17.2963 16.0107 17.3277C16.0866 17.3592 16.1679 17.3753 16.25 17.3753C16.3321 17.3753 16.4134 17.3592 16.4893 17.3277C16.5652 17.2963 16.6341 17.2503 16.6922 17.1922C16.7503 17.1341 16.7963 17.0652 16.8277 16.9893C16.8592 16.9134 16.8753 16.8321 16.8753 16.75C16.8753 16.6679 16.8592 16.5866 16.8277 16.5107C16.7963 16.4348 16.7503 16.3659 16.6922 16.3078L15.4422 15.0578ZM3.75 10.5C3.75 10.3342 3.68415 10.1753 3.56694 10.0581C3.44973 9.94085 3.29076 9.875 3.125 9.875H1.25C1.08424 9.875 0.925268 9.94085 0.808058 10.0581C0.690848 10.1753 0.625 10.3342 0.625 10.5C0.625 10.6658 0.690848 10.8247 0.808058 10.9419C0.925268 11.0592 1.08424 11.125 1.25 11.125H3.125C3.29076 11.125 3.44973 11.0592 3.56694 10.9419C3.68415 10.8247 3.75 10.6658 3.75 10.5ZM10 16.75C9.83424 16.75 9.67527 16.8158 9.55806 16.9331C9.44085 17.0503 9.375 17.2092 9.375 17.375V19.25C9.375 19.4158 9.44085 19.5747 9.55806 19.6919C9.67527 19.8092 9.83424 19.875 10 19.875C10.1658 19.875 10.3247 19.8092 10.4419 19.6919C10.5592 19.5747 10.625 19.4158 10.625 19.25V17.375C10.625 17.2092 10.5592 17.0503 10.4419 16.9331C10.3247 16.8158 10.1658 16.75 10 16.75ZM18.75 9.875H16.875C16.7092 9.875 16.5503 9.94085 16.4331 10.0581C16.3158 10.1753 16.25 10.3342 16.25 10.5C16.25 10.6658 16.3158 10.8247 16.4331 10.9419C16.5503 11.0592 16.7092 11.125 16.875 11.125H18.75C18.9158 11.125 19.0747 11.0592 19.1919 10.9419C19.3092 10.8247 19.375 10.6658 19.375 10.5C19.375 10.3342 19.3092 10.1753 19.1919 10.0581C19.0747 9.94085 18.9158 9.875 18.75 9.875Z" fill="#1C1C1C"/>
</svg>
